<?xml version="1.0" encoding="UTF-8" standalone="no"?>
<!-- Generator: Adobe Illustrator 15.0.0, SVG Export Plug-In . SVG Version: 6.00 Build 0)  -->

<svg
   version="1.1"
   id="Layer_1"
   x="0px"
   y="0px"
   width="307.11801"
   height="135.979"
   viewBox="0 0 307.118 135.979"
   enable-background="new 0 0 307.118 188.121"
   xml:space="preserve"
   xmlns="http://www.w3.org/2000/svg"
   xmlns:svg="http://www.w3.org/2000/svg"
   xmlns:rdf="http://www.w3.org/1999/02/22-rdf-syntax-ns#"
   xmlns:cc="http://creativecommons.org/ns#"
   xmlns:dc="http://purl.org/dc/elements/1.1/"><metadata
     id="metadata37"><rdf:RDF><cc:Work
         rdf:about=""><dc:format>image/svg+xml</dc:format><dc:type
           rdf:resource="http://purl.org/dc/dcmitype/StillImage" /></cc:Work></rdf:RDF></metadata><defs
     id="defs35" /><g
     id="g30"><path
       d="m 107.704,75.175 c -0.043,2.799 -1.105,7.696 0.813,16.679 0,0 5.848,43.271 49.909,44.125 12.672,-0.867 18.02,-3.278 24.542,-6.47 24.479,-11.98 28.55,-38.823 28.55,-38.823 h -23.027 c -13.322,30.07 -39.204,19.979 -39.204,19.979 L 163.85,42.248 c 27.977,0.766 29.02,27.123 29.02,27.123 h 23.41 c 0,0 1.646,-27.689 -25.34,-44.115 -5.53,-3.363 -14.646,-5.73 -23.569,-5.939 0,-0.001 -49.834,-3.127 -59.667,55.858"
       id="path20"
       style="fill:#e73137" /><polyline
       points="307.118,26.743 302.556,48.06 263.347,48.06 258.779,69.376 298.079,69.376 293.609,90.692    254.308,90.692 249.835,112.006 289.138,112.006 284.57,133.226 205.396,133.226 227.947,26.743 307.118,26.743  "
       id="polyline22"
       style="fill:#e73137" /><polyline
       points="58.045,133.413 45.295,65.468 0,133.413 58.045,133.413  "
       id="polyline24"
       style="fill:#e73137" /><polyline
       points="113.526,133.413 70.228,133.413 55.004,50.812 88.88,0 113.526,133.413  "
       id="polyline26"
       style="fill:#e73137" /></g></svg>
