<svg xmlns="http://www.w3.org/2000/svg" viewBox="0 0 1913 1096"><path fill="#c00" d="M340.57 0h18.74c109.55 2.38 220.34 35.41 279.92 135.89 25.41 42.87 38.13 92.38 41.74 141.83a.49.49 0 0 1-.49.53H470.23q-.55 0-.61-.55c-4.58-43.85-23.69-84.39-68.86-98.55-24.67-7.73-53.52-9.38-79.19-3.74-66.45 14.6-89.73 76.28-96.06 137.09-4.09 39.18-3.86 80.18 3.13 119.01 9.74 54.1 37.49 103.88 95 117.34q32.31 7.56 65.37.89c55.31-11.16 81.68-57.23 86.23-109.84a.99.98-87.5 0 1 .98-.9h208.05q.61 0 .57.6c-3.02 47.3-14.82 94.1-36.56 135.85-41.96 80.57-121.7 127.36-209.22 142.43-93.78 16.14-202.75 7.07-285.66-43.7C45.34 608 1.7 492.16 0 369.68V355.2C2.02 229.76 47.67 109.85 161.3 45.38 216.08 14.3 278.16 1.76 340.57 0ZM1557.56 0h11.2c60.86.27 123.09 10.43 176.99 39.26 67.39 36.05 105.61 100.13 111.77 175.55q.12 1.43-1.32 1.43l-207.18.01a1 1 0 0 1-.99-.86c-5.02-33.88-28.15-52.08-60.58-57.24-25.2-4.02-71.7-5.37-89.56 17.66-9.3 11.99-11.45 31.85-4.15 45.4 11.33 21.06 47.98 28.86 70.25 34.59q54.23 13.95 108.49 27.78c33.29 8.47 66.59 18.15 97.49 33.42 19.32 9.55 39.25 24.63 55.41 40.51 50.07 49.17 59.38 117.49 46.46 184.29-21.3 110.2-115.06 162.12-217.61 177.06-64.44 9.39-133.71 8.87-197.72-6.65-27.82-6.74-56.05-17.78-81-32.59-68.91-40.9-106.15-107.92-113.53-186.91q-.09-1.05.96-1.05l213.65.11a.87.87 0 0 1 .85.7c7.7 39.14 32.14 61.65 71.32 66.95 33.66 4.56 109.88 4.51 112.68-45.83q1.45-25.97-20.11-38.9c-14.02-8.41-31.51-13.21-47.41-17.3-66.35-17.09-130.11-32.36-192.37-56.01-15.48-5.88-32.8-13.39-46.82-23.1q-69.47-48.13-79.04-132.49c-8.24-72.65 16.28-142.29 75.49-187.14C1410.16 13.97 1485.41 1.57 1557.56 0ZM1094.94 18.25h216.42a.33.33 0 0 1 .31.44l-231.14 686.84a.33.33 0 0 1-.32.22H860.56a.33.33 0 0 1-.32-.22L629.08 18.69a.33.33 0 0 1 .31-.44h225a.33.33 0 0 1 .31.25l115.34 442.27a.33.33 0 0 0 .64.01l123.94-442.29a.33.33 0 0 1 .32-.24ZM341.97 842a.31.3-24 0 0 .53.2c11.27-12.24 25.29-20.39 41.68-23.69 37.42-7.52 77.98 7.6 86.57 48.5q3.25 15.48 3.34 36.3.23 56.48.15 112.94a.5.5 0 0 1-.5.5h-76.22a.32.32 0 0 1-.32-.32q.22-54.68-.32-107.43c-.23-21.58-8.81-36.02-32.94-31.31-15.79 3.09-21.85 18.75-21.88 33.13q-.12 52.68-.04 104.39 0 1.53-1.53 1.53l-74.99.02a.76.75 90 0 1-.75-.76V753.75a1 1 0 0 1 1-1h75.51a.76.75 90 0 1 .75.76l-.04 88.49ZM568.54 870.48c-2.56 3.41-2.66 6.71-3.8 10.25q-.17.52-.72.52h-73.77q-.57 0-.57-.57c.01-70.11 96.99-70.22 142.51-62.37 23.06 3.98 51.5 15.41 58.61 40.68q2.99 10.65 3 24.7 0 55.16-.12 110.31-.03 10.48 7.99 16.91a.86.86 0 0 1 .31.54l.63 4.13q.17 1.1-.95 1.11l-76.24.09q-.61 0-.77-.59l-4.48-17.47a.54.53-28.4 0 0-.88-.26c-17.99 16.26-40.3 24.33-64.53 25.12-26.04.85-54.22-5.17-67.17-30.69-7.88-15.54-9.07-36.75-3.67-53.21 7.39-22.49 29.69-30.97 50.66-35.54 17.24-3.75 34.57-5.59 52.05-7.75 10.93-1.35 29.65-1.33 31.63-15.39 2.17-15.48-11.96-18.8-24.1-19.03-9.52-.17-19.56.46-25.62 8.51Zm.64 104.34c7.64 3.41 18.69 2.49 26.1.8 21.78-4.98 24.25-26.71 22.57-45.22a.46.46 0 0 0-.61-.39q-18.04 6.13-36.5 10.93c-7.39 1.92-18.58 5.57-20.8 13.69-2.38 8.69 1.13 16.58 9.24 20.19ZM1418.17 928.56c-.17 22.1.26 44.97.03 65.69-.09 7.29 2.44 12.15 7.95 16.71a.73.72 18.9 0 1 .27.54l.24 4.53a.68.68 0 0 1-.68.72h-76.27q-.65 0-.8-.63l-4.38-17.54a.46.46 0 0 0-.76-.23c-24.22 22.01-57.29 29.11-89.05 23.61-29.17-5.05-47.56-24.01-49.41-54.72-1.05-17.37 1.89-34.27 15.17-46.3 15.24-13.8 42.8-18.63 62.55-20.99q31.99-3.83 43.48-5.6c4.3-.66 10.67-2.98 13.37-6.58 4.83-6.42 3.9-16.7-2.94-21.48-7.49-5.24-23.58-5.06-32.18-3.26-10.04 2.1-13.34 8.4-15.69 17.63q-.15.59-.76.59h-73.58q-.77 0-.76-.77c.58-52.36 53.03-63.61 93.77-65.34 29.15-1.24 71.73 2.05 93.82 22.73 12.05 11.27 15.97 24.46 16.29 40.63q.51 25.03.32 50.06Zm-134.42 29.92c-.88 22.27 28.39 20.9 41.35 15.24 16.97-7.43 18.73-26.97 17.05-43.37q-.06-.57-.6-.38-18.97 6.52-38.25 11.69c-9.06 2.43-19.11 5.85-19.55 16.82ZM1520.25 1022.94c-49.29-4.39-87.47-34.52-94.36-85.12-8.67-63.79 24.47-114.33 90.85-121.84 54.47-6.17 120.37 13.87 123.79 79.47q.02.55-.53.55h-75.98a.58.58 0 0 1-.58-.53c-1.58-18.22-12.17-27.58-30.26-26.55-19.2 1.09-27.14 14.51-29.57 32-2.46 17.74-2.48 42.26 7.04 57.41 7.4 11.8 25.26 14 36.79 9.09 10.71-4.56 15.68-14.72 16.63-25.81q.07-.86.93-.86h75.74a.41.41 0 0 1 .41.43q-1.54 28.9-19.64 49.93c-24.54 28.5-65.88 34.98-101.26 31.83ZM1116.4 885.67c-7.96-10.43-28.37-10.34-37.7-2.06-6.74 5.98-9.21 17.59-9.21 26.39q-.02 53.09.03 105.73a1.02 1.02 0 0 1-1.02 1.02h-74.24a.51.51 0 0 1-.51-.51q0-51.76-.01-103.74c0-6.89-.98-14.53-3.18-20.46-4.41-11.83-16.95-15.95-28.75-13.94-17.02 2.9-21.28 18.31-21.29 33.15q-.04 52.34-.01 104.51a.99.99 0 0 1-.99.99H865a.5.5 0 0 1-.5-.5v-194a.5.5 0 0 1 .5-.5h68.5a1 1 0 0 1 1 1v27a.27.27 0 0 0 .48.17q30.23-39.94 81.03-31.71c17.59 2.85 32.78 16.9 41.64 31.68a.68.68 0 0 0 1.12.07c13.31-17.11 31.71-29.31 53.72-32.5 33.8-4.91 71.22 5.63 82.77 41.27 3.71 11.49 3.56 21.46 3.71 36.68.38 39.99-.15 79.75.06 120.04q.01 1.3-1.29 1.3h-74.48a.52.51 0 0 1-.52-.51q.02-53.14.02-106.49c0-8.22-1.63-17.89-6.36-24.08ZM115.47 999.7c.16 1.72-.19 3.49-.2 5.09q-.16 44.74.31 89.36a.84.84 0 0 1-.84.85H41.03a.7.7 0 0 1-.47-.18q-.59-.53-.28-.93.22-.29.22-.65V822.25a.5.5 0 0 1 .5-.5h67a.75.75 0 0 1 .75.75v23.47a.39.39 0 0 0 .7.23q15.45-21.69 41.63-27.27c39.3-8.39 75.68 7.76 93.09 44.36 12.91 27.11 14.62 59.43 8.74 88.54-9.62 47.56-47.45 77.77-96.67 70.44q-24.42-3.64-39.99-22.88a.44.44 0 0 0-.78.31Zm1.98-60.19c4.1 19.24 21.24 28.39 39.83 22.92 21.7-6.38 22.35-33.91 21.27-52.24-.82-13.89-5.98-30.11-20.82-34.16-8.01-2.19-18.24-1.7-25.58 2.07-19.56 10.05-18.48 43.63-14.7 61.41ZM781.96 855.99a.38.37-35.4 0 0 .73.12c10.97-30.8 34.39-40.64 65.5-39.27q1.07.04 1.07 1.11l-.01 75.63q0 .53-.52.49c-13.3-1.09-26.16-1.79-37.89 2.53-16.26 5.99-22.22 20.87-22.34 37.21q-.3 41.24-.27 82.44a.5.49-90 0 1-.49.5H711.5a.75.75 0 0 1-.75-.75V822.51a.74.74 0 0 1 .74-.74l69.8-.03a.8.79.4 0 1 .8.8l-.13 33.45Z"/><path fill="#c00" d="M1734.01 938.93a.33.33 0 0 0 .63-.01l32.46-116.54a.88.87 7.9 0 1 .84-.63h71.34a.55.55 0 0 1 .52.72q-30.21 93.13-60.45 186.36-4.78 14.74-11.82 34.68c-10.08 28.57-23.1 47.74-55.29 50.37-21.2 1.73-42.31.46-63.6-.45a.67.67 0 0 1-.64-.67v-56.28a.73.73 0 0 1 .73-.73c9.83 0 22.28 1.31 31.82-1.23 20.38-5.43 5.55-37.66 1.22-49.49q-29.78-81.38-59.49-162.6a.51.5 79.8 0 1 .47-.68h76.78a1.06 1.06 0 0 1 1.02.77l33.46 116.41Z"/></svg>