<svg version="1.2" xmlns="http://www.w3.org/2000/svg" viewBox="0 0 1545 991" width="1545" height="991">
	<title>fcf6a5db-3520-43a1-8097-d312c367f7df-1-pdf-svg</title>
	<defs>
		<clipPath clipPathUnits="userSpaceOnUse" id="cp1">
			<path d="m-149.28-661.84h1809.09v2341.77h-1809.09z"/>
		</clipPath>
	</defs>
	<style>
		.s0 { fill: #0066ff } 
	</style>
	<g id="Clip-Path: Page 1" clip-path="url(#cp1)">
		<g id="Page 1">
			<path id="Path 25" class="s0" d="m220.8 576.3l-162.4-0.3 0.9-304.5-59-0.2 0.3-104.2h59l0.1-5.8c0-41.4 2.7-80.2 30.6-115 32.2-39.6 83.1-46.1 131.4-46l120.6 11-0.3 103.5-73.9-6.8c-40.2-3.4-51.7 19.8-47.6 59.4l103.3 0.3-0.4 104.2-101.7-0.1m320.3 305.1l-158.8-0.3 1.2-413.5 158.8 0.3zm1.3-453.1l-158.7-0.3 0.3-110 158.8 0.3m344 563.7l-135.9-0.2-171.1-555.5 187.3 0.3 78.7 293.6 16.4-58.7 66-234.6 129.3 0.2"/>
			<path id="Path 26" fill-rule="evenodd" class="s0" d="m1507.7 392.8c-28.4 134.7-128.1 196.5-237.5 196.4-67.8-0.2-133.8-17.6-186.1-73.2-49.6-53.4-75.7-129.5-75.5-208.8 0.3-74.9 25-156.4 68.4-209.6 47.3-58.5 118-85.6 184-85.4 153.8 0.3 247.6 119.9 247 302.4v29.5l-309.5-0.6c-2.9 59.7 15.1 103.2 69.3 103.3 40.7 0.2 63.4-19.4 70.8-67.3m-11.3-144.5c0.1-54.3-14.2-95.6-64.8-95.7-47.1-0.1-66.2 44.4-64.6 95.5zm-1321.5 376.1l182.6 0.3c28.2 0.1 57.2 2.4 80.5 19.4 25 18.2 39.6 49.1 39.5 79.8-0.2 39.6-25.3 73-63.4 81.8v1c43 7.8 72.3 40.9 72.1 85.9 0 32.5-11.5 68.7-38.3 88-28.9 20.8-69.3 21.2-103 21.1l-171-0.3zm150.9 144.9c10.9 0 24 0.6 32.2-7.1 7.1-6.7 11-16 11-24.9 0-27.9-22.8-31.7-44.7-31.9h-44.6l-0.2 63.7zm2.9 148.5c11.5 0 23.9 0.6 33.2-7.1 8.3-6.1 13.8-16 13.8-26.5 0-12.6-7.1-24.1-17.9-29.6-9.9-5-22.9-5-33.3-5l-45.1-0.1-0.3 68.1zm456.7 85l-280.5-0.6 1.2-377 280.5 0.6-0.3 86.8-168.3-0.3-0.2 55 136.2 0.2-0.2 84.1-136.1-0.3-0.3 61 168.3 0.3zm295.8 0.6l-262.1-0.6 1.2-377 115.5 0.3-0.9 284.6 146.6 0.3zm477.5 0.9l-96.3-0.1-51.2-207.9h-1l-49.1 207.7-100.3-0.3-98.5-377.1 107.8 0.1 51.1 217.8h1.2l51.3-217.5 89.9 0.2 54.3 217.7h1.1l52.3-217.6 87.6 0.2z"/>
			<path id="Path 27" fill-rule="evenodd" class="s0" d="m989.2 721.3c-8.7 55.3-60.3 93-115 84.3-54.8-8.7-92.2-60.6-83.5-115.9 8.8-55.4 60.2-93.1 115-84.4 54.9 8.7 92.3 60.7 83.5 116zm-57.3-9.1c3.7-23.4-12.1-45.3-35.2-49-23.2-3.7-44.9 12.3-48.6 35.7-3.7 23.2 12.1 45.2 35.2 48.9 23 3.7 44.9-12.3 48.6-35.6zm588.8-39.1c-13.3 0-24.1-10.4-24.1-23.3 0-12.9 10.8-23.4 24.1-23.4 13.2 0 24 10.5 24 23.4 0 12.9-10.8 23.3-24 23.3zm19.4-23.3c0-10.4-8.7-18.8-19.4-18.8-10.8 0-19.5 8.4-19.5 18.8 0 10.4 8.7 18.8 19.5 18.8 10.7 0 19.4-8.4 19.4-18.8zm-7.4 13h-4.6l-7.7-12.1h-4.6v12.1h-3.9v-26.2h11.6c2.3 0 4.5 0.2 6.5 1.4 2.1 1 3.1 3.4 3.1 5.6 0 5-3.8 6.9-8.5 7.1zm-12.6-15.3c3.8 0 8.9 0.6 8.9-3.9 0-3.4-3-3.9-6.4-3.9h-6.9v7.8z"/>
		</g>
	</g>
</svg>